<svg id="Layer_1" enable-background="new 0 0 511.941 511.941" height="512" viewBox="0 0 511.941 511.941" width="512" xmlns="http://www.w3.org/2000/svg"><g><path d="m68.952 7.441h320v496.94h-320z" fill="#56788b"/><path d="m388.952 7.441v496.94h-320v-20h286.98c7.19 0 13.02-5.83 13.02-13.02v-463.92z" fill="#415e6f"/><g><path d="m358.952 36.941v416.73l-21.21 21.21h-217.58l-21.21-21.2v-416.74h45l21.21 21.21h127.58l21.21-21.21z" fill="#99e7fa"/><path d="m358.952 82.651v365.7h-219.06c-7.08 0-12.82-5.73-12.82-12.81v-340.07c0-7.08 5.74-12.82 12.82-12.82z" fill="#4dd4f7"/><g><g><g><path d="m167.075 191.221h250v29.998h-250z" fill="#b9cfdf"/><path d="m397.075 191.221h20v29.998h-20z" fill="#90abbd"/></g><g><path d="m147.075 102.653h290v88.57h-290z" fill="#eef0f5"/><path d="m437.075 102.653v88.57h-290v-20h260.21c5.41 0 9.79-4.38 9.79-9.79v-58.78z" fill="#dae1ea"/><g><path d="m177.201 131.938h30v29.998h-30z" fill="#00cec8"/><path d="m237.201 131.938h30v29.998h-30z" fill="#ff4656"/></g></g><g><path d="m167.075 309.788h250v29.998h-250z" fill="#b9cfdf"/><path d="m397.075 309.788h20v29.998h-20z" fill="#90abbd"/></g><g><path d="m147.075 221.219h290v88.57h-290z" fill="#eef0f5"/><path d="m437.075 221.219v88.57h-290v-20h260.21c5.41 0 9.79-4.38 9.79-9.79v-58.78z" fill="#dae1ea"/><g><path d="m177.201 250.504h30v29.998h-30z" fill="#00cec8"/><path d="m237.201 250.504h30v29.998h-30z" fill="#ff4656"/></g></g><g><path d="m147.075 339.786h290v88.57h-290z" fill="#eef0f5"/><path d="m437.075 339.786v88.57h-290v-20h260.21c5.41 0 9.79-4.38 9.79-9.79v-58.78z" fill="#dae1ea"/><g><path d="m177.201 369.071h30v29.998h-30z" fill="#00cec8"/><path d="m237.201 369.071h30v29.998h-30z" fill="#ff4656"/></g></g></g></g></g></g><g><path d="m440.033 198.78c4.142 0 7.5-3.358 7.5-7.5v-88.563c0-4.142-3.358-7.5-7.5-7.5h-40.626v-87.717c0-4.142-3.358-7.5-7.5-7.5h-320c-4.142 0-7.5 3.358-7.5 7.5v336.453c0 4.107 3.164 7.688 7.269 7.811 4.247.127 7.731-3.278 7.731-7.497v-329.267h305v80.217h-15v-58.219c0-4.142-3.358-7.5-7.5-7.5h-45c-1.989 0-3.897.79-5.303 2.197l-19.014 19.015h-121.363l-19.017-19.016c-1.406-1.406-3.314-2.196-5.302-2.196h-45.001c-4.142 0-7.5 3.358-7.5 7.5v416.763c0 1.99.79 3.897 2.197 5.304l21.212 21.21c1.406 1.406 3.314 2.196 5.303 2.196h39.6c4.107 0 7.688-3.164 7.811-7.269.128-4.247-3.278-7.731-7.497-7.731h-36.808l-16.818-16.817v-406.156h34.394l19.017 19.016c1.406 1.406 3.314 2.196 5.303 2.196l127.575-.001c1.989 0 3.897-.79 5.304-2.197l19.015-19.014h34.394v50.719h-126.8c-4.107 0-7.688 3.164-7.811 7.269-.128 4.247 3.278 7.731 7.497 7.731h205.241v73.563h-275v-73.563h34.859c4.107 0 7.688-3.164 7.811-7.269.128-4.247-3.278-7.731-7.497-7.731h-42.673c-4.142 0-7.5 3.358-7.5 7.5v88.563c0 4.142 3.358 7.5 7.5 7.5h12.5v14.997h-12.5c-4.142 0-7.5 3.358-7.5 7.5v88.563c0 4.142 3.358 7.5 7.5 7.5h12.5v14.997h-12.5c-4.142 0-7.5 3.358-7.5 7.5v88.563c0 4.142 3.358 7.5 7.5 7.5h204.374v14.755l-16.818 16.818h-139.562c-4.142 0-7.5 3.358-7.5 7.5s3.358 7.5 7.5 7.5h142.666c1.989 0 3.896-.79 5.303-2.196l21.212-21.21c1.406-1.407 2.197-3.314 2.197-5.304v-17.863h14.999v61.042l-304.999.001v-117.739c0-4.107-3.164-7.688-7.269-7.811-4.247-.127-7.731 3.278-7.731 7.497v125.365c0 1.047.159 2.099.567 3.063 1.227 2.895 3.991 4.623 6.933 4.623l319.999-.001c4.142 0 7.5-3.358 7.5-7.5v-68.542h40.627c4.142 0 7.5-3.358 7.5-7.5v-88.563c0-4.142-3.358-7.5-7.5-7.5h-12.5v-14.997h12.5c4.142 0 7.5-3.358 7.5-7.5v-88.563c0-4.142-3.358-7.5-7.5-7.5h-12.5v-14.995zm-7.5 148.556v73.563h-275v-73.563zm-255-15v-14.997h235v14.997zm255-103.559v73.563h-275v-73.563h169.12c4.142 0 7.5-3.358 7.5-7.5s-3.358-7.5-7.5-7.5h-149.12v-14.997h235v14.997h-50.626c-4.142 0-7.5 3.358-7.5 7.5s3.358 7.5 7.5 7.5z"/><path d="m172.659 132v29.997c0 4.142 3.358 7.5 7.5 7.5h30c4.142 0 7.5-3.358 7.5-7.5v-29.997c0-4.142-3.358-7.5-7.5-7.5h-30c-4.142 0-7.5 3.358-7.5 7.5zm15 7.5h15v14.997h-15z"/><path d="m270.159 169.497c4.142 0 7.5-3.358 7.5-7.5v-29.997c0-4.142-3.358-7.5-7.5-7.5h-30c-4.142 0-7.5 3.358-7.5 7.5v29.997c0 4.142 3.358 7.5 7.5 7.5zm-22.5-29.997h15v14.997h-15z"/><path d="m210.159 243.06h-30c-4.142 0-7.5 3.358-7.5 7.5v29.997c0 4.142 3.358 7.5 7.5 7.5h30c4.142 0 7.5-3.358 7.5-7.5v-29.997c0-4.143-3.357-7.5-7.5-7.5zm-7.5 29.996h-15v-14.996h15z"/><path d="m270.159 243.06h-30c-4.142 0-7.5 3.358-7.5 7.5v29.997c0 4.142 3.358 7.5 7.5 7.5h30c4.142 0 7.5-3.358 7.5-7.5v-29.997c0-4.143-3.357-7.5-7.5-7.5zm-7.5 29.996h-15v-14.996h15z"/><path d="m180.159 406.615h30c4.142 0 7.5-3.358 7.5-7.5v-29.996c0-4.142-3.358-7.5-7.5-7.5h-30c-4.142 0-7.5 3.358-7.5 7.5v29.996c0 4.142 3.358 7.5 7.5 7.5zm7.5-29.996h15v14.996h-15z"/><path d="m240.159 406.615h30c4.142 0 7.5-3.358 7.5-7.5v-29.996c0-4.142-3.358-7.5-7.5-7.5h-30c-4.142 0-7.5 3.358-7.5 7.5v29.996c0 4.142 3.358 7.5 7.5 7.5zm7.5-29.996h15v14.996h-15z"/><path d="m310.657 391.636c4.142 0 7.5-3.358 7.5-7.501s-3.358-7.501-7.5-7.501-7.5 3.358-7.5 7.501 3.358 7.501 7.5 7.501z"/><path d="m354.157 391.636c4.142 0 7.5-3.358 7.5-7.501s-3.358-7.501-7.5-7.501-7.5 3.358-7.5 7.501 3.358 7.501 7.5 7.501z"/><path d="m397.657 391.636c4.142 0 7.5-3.358 7.5-7.501s-3.358-7.501-7.5-7.501-7.5 3.358-7.5 7.501 3.358 7.501 7.5 7.501z"/><path d="m310.657 258.062c-4.142 0-7.5 3.358-7.5 7.501s3.358 7.501 7.5 7.501 7.5-3.358 7.5-7.501c0-4.142-3.357-7.501-7.5-7.501z"/><path d="m354.157 258.062c-4.142 0-7.5 3.358-7.5 7.501s3.358 7.501 7.5 7.501 7.5-3.358 7.5-7.501c0-4.142-3.357-7.501-7.5-7.501z"/><path d="m397.657 273.065c4.142 0 7.5-3.358 7.5-7.501s-3.358-7.501-7.5-7.501-7.5 3.358-7.5 7.501 3.358 7.501 7.5 7.501z"/><path d="m318.157 147.004c0-4.143-3.358-7.501-7.5-7.501s-7.5 3.358-7.5 7.501 3.358 7.501 7.5 7.501 7.5-3.359 7.5-7.501z"/><path d="m361.657 147.004c0-4.143-3.358-7.501-7.5-7.501s-7.5 3.358-7.5 7.501 3.358 7.501 7.5 7.501 7.5-3.359 7.5-7.501z"/><path d="m405.157 147.004c0-4.143-3.358-7.501-7.5-7.501s-7.5 3.358-7.5 7.501 3.358 7.501 7.5 7.501 7.5-3.359 7.5-7.501z"/></g></svg>